<svg xmlns="http://www.w3.org/2000/svg" viewBox="0 0 100 100" width="100" height="100">
  <defs>
    <linearGradient id="bg" x1="0%" y1="0%" x2="100%" y2="100%">
      <stop offset="0%" style="stop-color:#0f0f1a"/>
      <stop offset="100%" style="stop-color:#1a1a2e"/>
    </linearGradient>
    <linearGradient id="acc" x1="0%" y1="0%" x2="100%" y2="100%">
      <stop offset="0%" style="stop-color:#e94560"/>
      <stop offset="100%" style="stop-color:#f5a623"/>
    </linearGradient>
  </defs>
  <rect width="100" height="100" rx="22" fill="url(#bg)"/>
  <rect x="12" y="12" width="22" height="22" rx="4" fill="url(#acc)" opacity="0.9"/>
  <rect x="39" y="12" width="22" height="22" rx="4" fill="rgba(255,255,255,0.08)"/>
  <rect x="66" y="12" width="22" height="22" rx="4" fill="url(#acc)" opacity="0.7"/>
  <rect x="12" y="39" width="22" height="22" rx="4" fill="rgba(255,255,255,0.08)"/>
  <rect x="39" y="39" width="22" height="22" rx="4" fill="url(#acc)"/>
  <rect x="66" y="39" width="22" height="22" rx="4" fill="rgba(255,255,255,0.08)"/>
  <rect x="12" y="66" width="22" height="22" rx="4" fill="url(#acc)" opacity="0.7"/>
  <rect x="39" y="66" width="22" height="22" rx="4" fill="rgba(255,255,255,0.08)"/>
  <rect x="66" y="66" width="22" height="22" rx="4" fill="url(#acc)" opacity="0.9"/>
  <text x="23" y="29" font-family="Arial" font-weight="bold" font-size="14" fill="white" text-anchor="middle">C</text>
  <text x="50" y="56" font-family="Arial" font-weight="bold" font-size="14" fill="white" text-anchor="middle">W</text>
  <text x="77" y="83" font-family="Arial" font-weight="bold" font-size="14" fill="white" text-anchor="middle">X</text>
</svg>
